<svg xmlns="http://www.w3.org/2000/svg" viewBox="0 0 400 220">
<defs>
  <linearGradient id="g" x1="0%" y1="0%" x2="100%" y2="100%">
    <stop offset="0%" stop-color="#FBEAFF"/>
    <stop offset="100%" stop-color="#c4a8e8"/>
  </linearGradient>
</defs>
<rect width="400" height="220" fill="url(#g)"/>

<rect x="30" y="72" width="340" height="76" rx="8" fill="rgba(132,94,194,0.22)" stroke="#845EC2" stroke-width="2"/>
<rect x="36" y="79" width="16" height="10" rx="2" fill="#845EC2" opacity="0.45"/><rect x="64" y="79" width="16" height="10" rx="2" fill="#845EC2" opacity="0.45"/><rect x="92" y="79" width="16" height="10" rx="2" fill="#845EC2" opacity="0.45"/><rect x="120" y="79" width="16" height="10" rx="2" fill="#845EC2" opacity="0.45"/><rect x="148" y="79" width="16" height="10" rx="2" fill="#845EC2" opacity="0.45"/><rect x="176" y="79" width="16" height="10" rx="2" fill="#845EC2" opacity="0.45"/><rect x="204" y="79" width="16" height="10" rx="2" fill="#845EC2" opacity="0.45"/><rect x="232" y="79" width="16" height="10" rx="2" fill="#845EC2" opacity="0.45"/><rect x="260" y="79" width="16" height="10" rx="2" fill="#845EC2" opacity="0.45"/><rect x="288" y="79" width="16" height="10" rx="2" fill="#845EC2" opacity="0.45"/><rect x="316" y="79" width="16" height="10" rx="2" fill="#845EC2" opacity="0.45"/><rect x="344" y="79" width="16" height="10" rx="2" fill="#845EC2" opacity="0.45"/><rect x="36" y="131" width="16" height="10" rx="2" fill="#845EC2" opacity="0.45"/><rect x="64" y="131" width="16" height="10" rx="2" fill="#845EC2" opacity="0.45"/><rect x="92" y="131" width="16" height="10" rx="2" fill="#845EC2" opacity="0.45"/><rect x="120" y="131" width="16" height="10" rx="2" fill="#845EC2" opacity="0.45"/><rect x="148" y="131" width="16" height="10" rx="2" fill="#845EC2" opacity="0.45"/><rect x="176" y="131" width="16" height="10" rx="2" fill="#845EC2" opacity="0.45"/><rect x="204" y="131" width="16" height="10" rx="2" fill="#845EC2" opacity="0.45"/><rect x="232" y="131" width="16" height="10" rx="2" fill="#845EC2" opacity="0.45"/><rect x="260" y="131" width="16" height="10" rx="2" fill="#845EC2" opacity="0.45"/><rect x="288" y="131" width="16" height="10" rx="2" fill="#845EC2" opacity="0.45"/><rect x="316" y="131" width="16" height="10" rx="2" fill="#845EC2" opacity="0.45"/><rect x="344" y="131" width="16" height="10" rx="2" fill="#845EC2" opacity="0.45"/>
<line x1="42" y1="110" x2="42" y2="92" stroke="#845EC2" stroke-width="4" stroke-linecap="round"/>
<line x1="55" y1="110" x2="55" y2="82" stroke="#845EC2" stroke-width="4" stroke-linecap="round"/>
<line x1="68" y1="110" x2="68" y2="97" stroke="#845EC2" stroke-width="4" stroke-linecap="round"/>
<line x1="81" y1="110" x2="81" y2="86" stroke="#845EC2" stroke-width="4" stroke-linecap="round"/>
<line x1="94" y1="110" x2="94" y2="104" stroke="#845EC2" stroke-width="4" stroke-linecap="round"/>
<line x1="107" y1="110" x2="107" y2="78" stroke="#845EC2" stroke-width="4" stroke-linecap="round"/>
<line x1="120" y1="110" x2="120" y2="90" stroke="#845EC2" stroke-width="4" stroke-linecap="round"/>
<line x1="133" y1="110" x2="133" y2="84" stroke="#845EC2" stroke-width="4" stroke-linecap="round"/>
<line x1="156" y1="82" x2="182" y2="138" stroke="#FF6F91" stroke-width="3" stroke-linecap="round"/>
<line x1="182" y1="82" x2="156" y2="138" stroke="#FF6F91" stroke-width="3" stroke-linecap="round"/>
<rect x="206" y="85" width="80" height="50" rx="8" fill="#845EC2" opacity="0.7"/>
<rect x="216" y="94" width="60" height="6" rx="3" fill="white" opacity="0.9"/>
<rect x="218" y="106" width="50" height="5" rx="2" fill="white" opacity="0.6"/>
<rect x="221" y="117" width="40" height="5" rx="2" fill="white" opacity="0.6"/>
<circle cx="338" cy="110" r="26" fill="#845EC2" opacity="0.18" stroke="#845EC2" stroke-width="2"/>
<circle cx="338" cy="110" r="16" fill="#845EC2" opacity="0.45"/>
<polygon points="333,103 333,117 347,110" fill="white"/>

</svg>