<svg xmlns="http://www.w3.org/2000/svg" viewBox="0 0 400 220">
<defs>
  <linearGradient id="g" x1="0%" y1="0%" x2="100%" y2="100%">
    <stop offset="0%" stop-color="#e8f5e9"/>
    <stop offset="100%" stop-color="#4DD0B2"/>
  </linearGradient>
</defs>
<rect width="400" height="220" fill="url(#g)"/>

<rect x="32" y="48" width="200" height="140" rx="14" fill="rgba(0,150,100,0.12)" stroke="#00897B" stroke-width="2"/>
<polyline points="32,62 132,126 232,62" fill="none" stroke="#00897B" stroke-width="2.5" stroke-linecap="round" stroke-linejoin="round"/>
<line x1="32" y1="188" x2="82" y2="148" stroke="#00897B" stroke-width="1.5" opacity="0.4"/>
<line x1="232" y1="188" x2="182" y2="148" stroke="#00897B" stroke-width="1.5" opacity="0.4"/>
<path d="M 288 88 A 52 52 0 1 1 287 88" fill="none" stroke="#00C9A7" stroke-width="3.5" stroke-linecap="round" stroke-dasharray="220 50" opacity="0.55"/>
<polygon points="286,48 298,64 274,64" fill="#00C9A7" opacity="0.6"/>
<circle cx="308" cy="148" r="28" fill="rgba(0,201,167,0.2)" stroke="#00C9A7" stroke-width="2"/>
<circle cx="308" cy="148" r="14" fill="rgba(0,201,167,0.35)" stroke="#00C9A7" stroke-width="1.5"/>
<rect x="299" y="140" width="18" height="16" rx="4" fill="white" opacity="0.75"/>
<line x1="299" y1="144" x2="317" y2="144" stroke="#00C9A7" stroke-width="1.5" opacity="0.6"/>
<line x1="299" y1="149" x2="317" y2="149" stroke="#00C9A7" stroke-width="1.5" opacity="0.6"/>
<line x1="299" y1="154" x2="310" y2="154" stroke="#00C9A7" stroke-width="1.5" opacity="0.6"/>

</svg>