<svg xmlns="http://www.w3.org/2000/svg" viewBox="0 0 400 220">
<defs>
  <linearGradient id="g" x1="0%" y1="0%" x2="100%" y2="100%">
    <stop offset="0%" stop-color="#FBEAFF"/>
    <stop offset="100%" stop-color="#d4b8f0"/>
  </linearGradient>
</defs>
<rect width="400" height="220" fill="url(#g)"/>

<rect x="18" y="22" width="210" height="176" rx="10" fill="rgba(100,50,200,0.07)" stroke="#7B1FA2" stroke-width="1.5"/>
<rect x="18" y="22" width="210" height="26" rx="10" fill="rgba(100,50,200,0.16)"/>
<rect x="28" y="31" width="90" height="7" rx="3" fill="#7B1FA2" opacity="0.4"/>
<rect x="28" y="60" width="12" height="9" rx="2" fill="#69F0AE" opacity="0.8"/>
<rect x="46" y="61" width="120" height="7" rx="2" fill="#69F0AE" opacity="0.45"/>
<rect x="28" y="75" width="12" height="9" rx="2" fill="#69F0AE" opacity="0.8"/>
<rect x="46" y="76" width="100" height="7" rx="2" fill="#69F0AE" opacity="0.45"/>
<rect x="28" y="90" width="12" height="9" rx="2" fill="#FF5252" opacity="0.8"/>
<rect x="46" y="91" width="140" height="7" rx="2" fill="#FF5252" opacity="0.38"/>
<rect x="28" y="105" width="12" height="9" rx="2" fill="#FF5252" opacity="0.8"/>
<rect x="46" y="106" width="112" height="7" rx="2" fill="#FF5252" opacity="0.38"/>
<rect x="28" y="120" width="12" height="9" rx="2" fill="#69F0AE" opacity="0.8"/>
<rect x="46" y="121" width="90" height="7" rx="2" fill="#69F0AE" opacity="0.45"/>
<rect x="28" y="135" width="12" height="9" rx="2" fill="#69F0AE" opacity="0.8"/>
<rect x="46" y="136" width="130" height="7" rx="2" fill="#69F0AE" opacity="0.45"/>
<rect x="28" y="150" width="12" height="9" rx="2" fill="#FF5252" opacity="0.8"/>
<rect x="46" y="151" width="118" height="7" rx="2" fill="#FF5252" opacity="0.38"/>
<rect x="28" y="165" width="12" height="9" rx="2" fill="#69F0AE" opacity="0.8"/>
<rect x="46" y="166" width="98" height="7" rx="2" fill="#69F0AE" opacity="0.45"/>
<circle cx="304" cy="98" r="54" fill="rgba(123,31,162,0.08)" stroke="#7B1FA2" stroke-width="2.5"/>
<circle cx="304" cy="98" r="34" fill="rgba(123,31,162,0.1)"/>
<line x1="346" y1="140" x2="374" y2="168" stroke="#7B1FA2" stroke-width="5" stroke-linecap="round"/>
<polyline points="287,98 299,110 325,84" fill="none" stroke="#7B1FA2" stroke-width="3.5" stroke-linecap="round" stroke-linejoin="round"/>

</svg>