<svg xmlns="http://www.w3.org/2000/svg" viewBox="0 0 400 220">
<defs>
  <linearGradient id="g" x1="0%" y1="0%" x2="100%" y2="100%">
    <stop offset="0%" stop-color="#C4FCEF"/>
    <stop offset="100%" stop-color="#5ec8b0"/>
  </linearGradient>
</defs>
<rect width="400" height="220" fill="url(#g)"/>

<rect x="48" y="28" width="304" height="164" rx="12" fill="rgba(0,180,150,0.15)" stroke="#00C9A7" stroke-width="2"/>
<rect x="63" y="45" width="274" height="104" rx="6" fill="rgba(0,150,120,0.1)"/>
<circle cx="200" cy="97" r="24" fill="rgba(0,180,150,0.25)" stroke="#00C9A7" stroke-width="1.5"/>
<polygon points="194,89 194,105 212,97" fill="#00C9A7" opacity="0.8"/>
<line x1="100" y1="152" x2="100" y2="130" stroke="#00C9A7" stroke-width="3" stroke-linecap="round"/>
<line x1="116" y1="152" x2="116" y2="118" stroke="#00C9A7" stroke-width="3" stroke-linecap="round"/>
<line x1="132" y1="152" x2="132" y2="138" stroke="#00C9A7" stroke-width="3" stroke-linecap="round"/>
<line x1="148" y1="152" x2="148" y2="122" stroke="#00C9A7" stroke-width="3" stroke-linecap="round"/>
<line x1="164" y1="152" x2="164" y2="140" stroke="#00C9A7" stroke-width="3" stroke-linecap="round"/>
<rect x="63" y="160" width="274" height="20" rx="5" fill="#00C9A7" opacity="0.35"/>
<rect x="85" y="165" width="110" height="8" rx="4" fill="#00C9A7" opacity="0.75"/>
<rect x="210" y="165" width="100" height="8" rx="4" fill="#00C9A7" opacity="0.4"/>
<rect x="296" y="48" width="40" height="26" rx="6" fill="#00C9A7" opacity="0.65"/>
<rect x="302" y="55" width="28" height="4" rx="2" fill="white" opacity="0.9"/>
<rect x="302" y="63" width="22" height="4" rx="2" fill="white" opacity="0.6"/>

</svg>