<svg xmlns="http://www.w3.org/2000/svg" viewBox="0 0 400 220">
<defs>
  <linearGradient id="g" x1="0%" y1="0%" x2="100%" y2="100%">
    <stop offset="0%" stop-color="#FBEAFF"/>
    <stop offset="100%" stop-color="#b8f0e0"/>
  </linearGradient>
</defs>
<rect width="400" height="220" fill="url(#g)"/>

<rect x="22" y="32" width="114" height="156" rx="10" fill="rgba(132,94,194,0.15)" stroke="#845EC2" stroke-width="1.5"/>
<rect x="34" y="50" width="90" height="8" rx="3" fill="#845EC2" opacity="0.6"/>
<rect x="34" y="64" width="80" height="5" rx="2" fill="#845EC2" opacity="0.3"/>
<rect x="34" y="74" width="85" height="5" rx="2" fill="#845EC2" opacity="0.3"/>
<rect x="34" y="84" width="75" height="5" rx="2" fill="#845EC2" opacity="0.3"/>
<rect x="34" y="98" width="90" height="8" rx="3" fill="#845EC2" opacity="0.6"/>
<rect x="34" y="112" width="82" height="5" rx="2" fill="#845EC2" opacity="0.3"/>
<rect x="34" y="122" width="78" height="5" rx="2" fill="#845EC2" opacity="0.3"/>
<rect x="34" y="132" width="86" height="5" rx="2" fill="#845EC2" opacity="0.3"/>
<line x1="136" y1="88" x2="196" y2="88" stroke="#845EC2" stroke-width="1.5" stroke-dasharray="4,3" opacity="0.5"/>
<line x1="136" y1="130" x2="196" y2="148" stroke="#845EC2" stroke-width="1.5" stroke-dasharray="4,3" opacity="0.5"/>
<circle cx="208" cy="78" r="14" fill="rgba(132,94,194,0.35)" stroke="#845EC2" stroke-width="1.5"/>
<circle cx="208" cy="78" r="6" fill="#845EC2" opacity="0.65"/>
<circle cx="208" cy="118" r="12" fill="rgba(0,201,167,0.3)" stroke="#00C9A7" stroke-width="1.5"/>
<circle cx="208" cy="118" r="5" fill="#00C9A7" opacity="0.65"/>
<circle cx="208" cy="152" r="10" fill="rgba(132,94,194,0.3)" stroke="#845EC2" stroke-width="1.5"/>
<circle cx="208" cy="152" r="4" fill="#845EC2" opacity="0.65"/>
<line x1="222" y1="78" x2="264" y2="78" stroke="#845EC2" stroke-width="1.5" opacity="0.4"/>
<line x1="220" y1="118" x2="264" y2="112" stroke="#00C9A7" stroke-width="1.5" opacity="0.4"/>
<line x1="218" y1="152" x2="264" y2="145" stroke="#845EC2" stroke-width="1.5" opacity="0.4"/>
<rect x="266" y="52" width="106" height="52" rx="10" fill="rgba(0,201,167,0.18)" stroke="#00C9A7" stroke-width="1.5"/>
<rect x="276" y="64" width="86" height="6" rx="3" fill="#00C9A7" opacity="0.6"/>
<rect x="276" y="76" width="74" height="5" rx="2" fill="#00C9A7" opacity="0.4"/>
<rect x="276" y="87" width="80" height="5" rx="2" fill="#00C9A7" opacity="0.4"/>
<polygon points="372,104 380,116 364,116" fill="#00C9A7" opacity="0.5"/>
<rect x="266" y="126" width="106" height="52" rx="10" fill="rgba(132,94,194,0.18)" stroke="#845EC2" stroke-width="1.5"/>
<rect x="276" y="138" width="86" height="6" rx="3" fill="#845EC2" opacity="0.6"/>
<rect x="276" y="150" width="74" height="5" rx="2" fill="#845EC2" opacity="0.4"/>
<rect x="276" y="161" width="80" height="5" rx="2" fill="#845EC2" opacity="0.4"/>

</svg>