<svg xmlns="http://www.w3.org/2000/svg" viewBox="0 0 400 220">
<defs>
  <linearGradient id="g" x1="0%" y1="0%" x2="100%" y2="100%">
    <stop offset="0%" stop-color="#e3f2fd"/>
    <stop offset="100%" stop-color="#90caf9"/>
  </linearGradient>
</defs>
<rect width="400" height="220" fill="url(#g)"/>

<line x1="68" y1="40" x2="168" y2="180" stroke="#1565C0" stroke-width="20" stroke-linecap="round" opacity="0.35"/>
<line x1="168" y1="40" x2="68" y2="180" stroke="#1565C0" stroke-width="20" stroke-linecap="round" opacity="0.35"/>
<line x1="68" y1="40" x2="168" y2="180" stroke="#1565C0" stroke-width="8" stroke-linecap="round" opacity="0.7"/>
<line x1="168" y1="40" x2="68" y2="180" stroke="#1565C0" stroke-width="8" stroke-linecap="round" opacity="0.7"/>
<rect x="200" y="28" width="168" height="164" rx="14" fill="rgba(21,101,192,0.1)" stroke="#1565C0" stroke-width="1.5" opacity="0.6"/>
<rect x="214" y="48" width="140" height="8" rx="3" fill="#1565C0" opacity="0.45"/>
<rect x="214" y="62" width="128" height="5" rx="2" fill="#42A5F5" opacity="0.4"/>
<rect x="214" y="72" width="134" height="5" rx="2" fill="#42A5F5" opacity="0.4"/>
<rect x="214" y="82" width="118" height="5" rx="2" fill="#42A5F5" opacity="0.4"/>
<line x1="214" y1="98" x2="354" y2="98" stroke="#1565C0" stroke-width="1" opacity="0.25"/>
<circle cx="226" cy="116" r="11" fill="rgba(21,101,192,0.18)" stroke="#1565C0" stroke-width="1.5"/>
<circle cx="258" cy="116" r="11" fill="rgba(21,101,192,0.18)" stroke="#1565C0" stroke-width="1.5"/>
<circle cx="290" cy="116" r="11" fill="rgba(21,101,192,0.18)" stroke="#1565C0" stroke-width="1.5"/>
<rect x="214" y="140" width="140" height="32" rx="8" fill="#1565C0" opacity="0.25"/>
<rect x="224" y="150" width="80" height="6" rx="3" fill="#1565C0" opacity="0.6"/>
<polyline points="230,190 248,168 260,178 282,148 310,162" fill="none" stroke="#1565C0" stroke-width="3" stroke-linecap="round" stroke-linejoin="round" opacity="0.65"/>
<circle cx="310" cy="162" r="5" fill="#1565C0" opacity="0.65"/>

</svg>