<svg xmlns="http://www.w3.org/2000/svg" viewBox="0 0 400 220">
<defs>
  <linearGradient id="g" x1="0%" y1="0%" x2="100%" y2="100%">
    <stop offset="0%" stop-color="#fce4ec"/>
    <stop offset="100%" stop-color="#f48fb1"/>
  </linearGradient>
</defs>
<rect width="400" height="220" fill="url(#g)"/>

<rect x="22" y="22" width="200" height="176" rx="8" fill="rgba(244,143,177,0.14)" stroke="#E91E63" stroke-width="1.5"/>
<rect x="22" y="22" width="200" height="26" rx="8" fill="rgba(233,30,99,0.22)"/>
<rect x="34" y="31" width="72" height="7" rx="3" fill="#E91E63" opacity="0.55"/>
<line x1="22" y1="48" x2="222" y2="48" stroke="#E91E63" stroke-width="1" opacity="0.2"/>
<line x1="100" y1="22" x2="100" y2="198" stroke="#E91E63" stroke-width="1" opacity="0.12"/>
<line x1="160" y1="22" x2="160" y2="198" stroke="#E91E63" stroke-width="1" opacity="0.12"/>
<rect x="34" y="56" width="44" height="7" rx="3" fill="#E91E63" opacity="0.4"/>
<rect x="108" y="56" width="50" height="7" rx="3" fill="#E91E63" opacity="0.3"/>
<rect x="166" y="56" width="36" height="7" rx="3" fill="#E91E63" opacity="0.35"/><rect x="34" y="72" width="72" height="7" rx="3" fill="#E91E63" opacity="0.4"/>
<rect x="108" y="72" width="42" height="7" rx="3" fill="#E91E63" opacity="0.3"/>
<rect x="166" y="72" width="58" height="7" rx="3" fill="#E91E63" opacity="0.35"/><rect x="34" y="88" width="56" height="7" rx="3" fill="#E91E63" opacity="0.4"/>
<rect x="108" y="88" width="58" height="7" rx="3" fill="#E91E63" opacity="0.3"/>
<rect x="166" y="88" width="44" height="7" rx="3" fill="#E91E63" opacity="0.35"/><rect x="34" y="104" width="48" height="7" rx="3" fill="#E91E63" opacity="0.4"/>
<rect x="108" y="104" width="36" height="7" rx="3" fill="#E91E63" opacity="0.3"/>
<rect x="166" y="104" width="62" height="7" rx="3" fill="#E91E63" opacity="0.35"/><rect x="34" y="120" width="66" height="7" rx="3" fill="#E91E63" opacity="0.4"/>
<rect x="108" y="120" width="46" height="7" rx="3" fill="#E91E63" opacity="0.3"/>
<rect x="166" y="120" width="40" height="7" rx="3" fill="#E91E63" opacity="0.35"/><rect x="34" y="136" width="52" height="7" rx="3" fill="#E91E63" opacity="0.4"/>
<rect x="108" y="136" width="54" height="7" rx="3" fill="#E91E63" opacity="0.3"/>
<rect x="166" y="136" width="48" height="7" rx="3" fill="#E91E63" opacity="0.35"/><rect x="34" y="152" width="38" height="7" rx="3" fill="#E91E63" opacity="0.4"/>
<rect x="108" y="152" width="60" height="7" rx="3" fill="#E91E63" opacity="0.3"/>
<rect x="166" y="152" width="54" height="7" rx="3" fill="#E91E63" opacity="0.35"/><rect x="34" y="168" width="70" height="7" rx="3" fill="#E91E63" opacity="0.4"/>
<rect x="108" y="168" width="38" height="7" rx="3" fill="#E91E63" opacity="0.3"/>
<rect x="166" y="168" width="42" height="7" rx="3" fill="#E91E63" opacity="0.35"/><rect x="34" y="184" width="60" height="7" rx="3" fill="#E91E63" opacity="0.4"/>
<rect x="108" y="184" width="44" height="7" rx="3" fill="#E91E63" opacity="0.3"/>
<rect x="166" y="184" width="50" height="7" rx="3" fill="#E91E63" opacity="0.35"/>
<circle cx="288" cy="76" r="22" fill="rgba(233,30,99,0.18)" stroke="#E91E63" stroke-width="2"/>
<polyline points="279,76 286,83 300,69" fill="none" stroke="#E91E63" stroke-width="3" stroke-linecap="round" stroke-linejoin="round"/>
<rect x="248" y="116" width="118" height="74" rx="8" fill="rgba(233,30,99,0.1)" stroke="#E91E63" stroke-width="1.5"/>
<rect x="260" y="136" width="22" height="44" rx="3" fill="#E91E63" opacity="0.5"/>
<rect x="291" y="126" width="22" height="54" rx="3" fill="#E91E63" opacity="0.4"/>
<rect x="322" y="142" width="22" height="38" rx="3" fill="#E91E63" opacity="0.6"/>
<line x1="248" y1="190" x2="366" y2="190" stroke="#E91E63" stroke-width="1.5" opacity="0.4"/>

</svg>